<svg width="41" height="112" viewBox="0 0 41 112" fill="none" xmlns="http://www.w3.org/2000/svg">
<rect x="0.483398" width="40.5167" height="112" rx="6" fill="#FDBA74"/>
<rect x="8.9834" y="8.5" width="23.5167" height="13" rx="3.5" stroke="#9A3412"/>
<path d="M12.4834 18.6L14.8234 11.4H16.3284L18.6684 18.6H17.5834L15.4284 12.03H15.6984L13.5684 18.6H12.4834ZM13.6984 16.975V15.995H17.4584V16.975H13.6984Z" fill="#9A3412"/>
<path d="M21.3854 11.4H22.4404L20.5204 18.6H19.4654L21.3854 11.4Z" fill="#9A3412"/>
<path d="M23.7451 18.6V11.4H26.5751C27.0318 11.4 27.4151 11.4934 27.7251 11.68C28.0351 11.8667 28.2685 12.1084 28.4251 12.405C28.5818 12.6984 28.6601 13.0084 28.6601 13.335C28.6601 13.7317 28.5618 14.0717 28.3651 14.355C28.1718 14.6384 27.9101 14.8317 27.5801 14.935L27.5701 14.69C28.0301 14.8034 28.3835 15.025 28.6301 15.355C28.8768 15.6817 29.0001 16.0634 29.0001 16.5C29.0001 16.9234 28.9151 17.2917 28.7451 17.605C28.5785 17.9184 28.3335 18.1634 28.0101 18.34C27.6901 18.5134 27.3018 18.6 26.8451 18.6H23.7451ZM24.8051 17.605H26.6851C26.9218 17.605 27.1335 17.56 27.3201 17.47C27.5101 17.38 27.6585 17.2517 27.7651 17.085C27.8751 16.915 27.9301 16.7134 27.9301 16.48C27.9301 16.2634 27.8818 16.0684 27.7851 15.895C27.6918 15.7184 27.5551 15.58 27.3751 15.48C27.1985 15.3767 26.9901 15.325 26.7501 15.325H24.8051V17.605ZM24.8051 14.34H26.5601C26.7535 14.34 26.9268 14.3017 27.0801 14.225C27.2368 14.145 27.3601 14.0317 27.4501 13.885C27.5435 13.735 27.5901 13.555 27.5901 13.345C27.5901 13.065 27.4968 12.835 27.3101 12.655C27.1235 12.475 26.8735 12.385 26.5601 12.385H24.8051V14.34Z" fill="#9A3412"/>
<path d="M18.7416 96.6666C19.1098 96.6666 19.4083 96.3682 19.4083 96C19.4083 95.6318 19.1098 95.3333 18.7416 95.3333C18.3734 95.3333 18.075 95.6318 18.075 96C18.075 96.3682 18.3734 96.6666 18.7416 96.6666Z" stroke="#9A3412" stroke-width="2" stroke-linecap="round" stroke-linejoin="round"/>
<path d="M18.7416 92C19.1098 92 19.4083 91.7015 19.4083 91.3334C19.4083 90.9652 19.1098 90.6667 18.7416 90.6667C18.3734 90.6667 18.075 90.9652 18.075 91.3334C18.075 91.7015 18.3734 92 18.7416 92Z" stroke="#9A3412" stroke-width="2" stroke-linecap="round" stroke-linejoin="round"/>
<path d="M18.7416 101.333C19.1098 101.333 19.4083 101.035 19.4083 100.667C19.4083 100.298 19.1098 100 18.7416 100C18.3734 100 18.075 100.298 18.075 100.667C18.075 101.035 18.3734 101.333 18.7416 101.333Z" stroke="#9A3412" stroke-width="2" stroke-linecap="round" stroke-linejoin="round"/>
<path d="M22.7416 96.6666C23.1098 96.6666 23.4083 96.3682 23.4083 96C23.4083 95.6318 23.1098 95.3333 22.7416 95.3333C22.3734 95.3333 22.075 95.6318 22.075 96C22.075 96.3682 22.3734 96.6666 22.7416 96.6666Z" stroke="#9A3412" stroke-width="2" stroke-linecap="round" stroke-linejoin="round"/>
<path d="M22.7416 92C23.1098 92 23.4083 91.7015 23.4083 91.3334C23.4083 90.9652 23.1098 90.6667 22.7416 90.6667C22.3734 90.6667 22.075 90.9652 22.075 91.3334C22.075 91.7015 22.3734 92 22.7416 92Z" stroke="#9A3412" stroke-width="2" stroke-linecap="round" stroke-linejoin="round"/>
<path d="M22.7416 101.333C23.1098 101.333 23.4083 101.035 23.4083 100.667C23.4083 100.298 23.1098 100 22.7416 100C22.3734 100 22.075 100.298 22.075 100.667C22.075 101.035 22.3734 101.333 22.7416 101.333Z" stroke="#9A3412" stroke-width="2" stroke-linecap="round" stroke-linejoin="round"/>
</svg>
