<svg width="42" height="112" viewBox="0 0 42 112" fill="none" xmlns="http://www.w3.org/2000/svg">
<rect width="42" height="112" rx="6" fill="#86EFAC"/>
<rect x="14.5" y="8.5" width="13" height="13" rx="3.5" stroke="#166534"/>
<path d="M17.9075 18.6L20.2475 11.4H21.7525L24.0925 18.6H23.0075L20.8525 12.03H21.1225L18.9925 18.6H17.9075ZM19.1225 16.975V15.995H22.8825V16.975H19.1225Z" fill="#166534"/>
<path d="M18.9999 96.6666C19.3681 96.6666 19.6666 96.3682 19.6666 96C19.6666 95.6318 19.3681 95.3333 18.9999 95.3333C18.6317 95.3333 18.3333 95.6318 18.3333 96C18.3333 96.3682 18.6317 96.6666 18.9999 96.6666Z" stroke="#166534" stroke-width="2" stroke-linecap="round" stroke-linejoin="round"/>
<path d="M18.9999 92C19.3681 92 19.6666 91.7015 19.6666 91.3334C19.6666 90.9652 19.3681 90.6667 18.9999 90.6667C18.6317 90.6667 18.3333 90.9652 18.3333 91.3334C18.3333 91.7015 18.6317 92 18.9999 92Z" stroke="#166534" stroke-width="2" stroke-linecap="round" stroke-linejoin="round"/>
<path d="M18.9999 101.333C19.3681 101.333 19.6666 101.035 19.6666 100.667C19.6666 100.298 19.3681 100 18.9999 100C18.6317 100 18.3333 100.298 18.3333 100.667C18.3333 101.035 18.6317 101.333 18.9999 101.333Z" stroke="#166534" stroke-width="2" stroke-linecap="round" stroke-linejoin="round"/>
<path d="M22.9999 96.6666C23.3681 96.6666 23.6666 96.3682 23.6666 96C23.6666 95.6318 23.3681 95.3333 22.9999 95.3333C22.6317 95.3333 22.3333 95.6318 22.3333 96C22.3333 96.3682 22.6317 96.6666 22.9999 96.6666Z" stroke="#166534" stroke-width="2" stroke-linecap="round" stroke-linejoin="round"/>
<path d="M22.9999 92C23.3681 92 23.6666 91.7015 23.6666 91.3334C23.6666 90.9652 23.3681 90.6667 22.9999 90.6667C22.6317 90.6667 22.3333 90.9652 22.3333 91.3334C22.3333 91.7015 22.6317 92 22.9999 92Z" stroke="#166534" stroke-width="2" stroke-linecap="round" stroke-linejoin="round"/>
<path d="M22.9999 101.333C23.3681 101.333 23.6666 101.035 23.6666 100.667C23.6666 100.298 23.3681 100 22.9999 100C22.6317 100 22.3333 100.298 22.3333 100.667C22.3333 101.035 22.6317 101.333 22.9999 101.333Z" stroke="#166534" stroke-width="2" stroke-linecap="round" stroke-linejoin="round"/>
</svg>
