<svg width="41" height="12" viewBox="0 0 41 12" fill="none" xmlns="http://www.w3.org/2000/svg">
<path d="M11.152 7.171H2.983L5.013 9.201L4.299 9.929L0.96 6.59L4.299 3.251L5.013 3.979L2.997 5.995H11.152V7.171ZM16.1921 11L19.4681 0.92H21.5751L24.8511 11H23.3321L20.3151 1.802H20.6931L17.7111 11H16.1921ZM17.8931 8.725V7.353H23.1571V8.725H17.8931ZM29.11 11.21C28.4053 11.21 27.7963 11.035 27.283 10.685C26.7743 10.335 26.38 9.859 26.1 9.257C25.8246 8.65033 25.687 7.969 25.687 7.213C25.687 6.45233 25.827 5.77333 26.107 5.176C26.387 4.574 26.7836 4.10033 27.297 3.755C27.815 3.405 28.4286 3.23 29.138 3.23C29.852 3.23 30.4516 3.405 30.937 3.755C31.427 4.10033 31.7956 4.574 32.043 5.176C32.295 5.778 32.421 6.457 32.421 7.213C32.421 7.969 32.295 8.648 32.043 9.25C31.791 9.852 31.42 10.3303 30.93 10.685C30.44 11.035 29.8333 11.21 29.11 11.21ZM29.313 9.887C29.7936 9.887 30.1856 9.77267 30.489 9.544C30.7923 9.31533 31.014 9.00033 31.154 8.599C31.294 8.19767 31.364 7.73567 31.364 7.213C31.364 6.69033 31.2916 6.22833 31.147 5.827C31.007 5.42567 30.7876 5.113 30.489 4.889C30.195 4.665 29.8193 4.553 29.362 4.553C28.8766 4.553 28.4776 4.672 28.165 4.91C27.8523 5.148 27.619 5.46767 27.465 5.869C27.3156 6.27033 27.241 6.71833 27.241 7.213C27.241 7.71233 27.3156 8.165 27.465 8.571C27.619 8.97233 27.8476 9.292 28.151 9.53C28.459 9.768 28.8463 9.887 29.313 9.887ZM31.364 11V5.561H31.196V0.92H32.666V11H31.364ZM37.5155 11.203C36.5962 11.203 35.8472 11 35.2685 10.594C34.6899 10.188 34.3352 9.61633 34.2045 8.879L35.7025 8.648C35.7959 9.04 36.0105 9.35033 36.3465 9.579C36.6872 9.803 37.1095 9.915 37.6135 9.915C38.0709 9.915 38.4279 9.82167 38.6845 9.635C38.9459 9.44833 39.0765 9.19167 39.0765 8.865C39.0765 8.67367 39.0299 8.51967 38.9365 8.403C38.8479 8.28167 38.6589 8.16733 38.3695 8.06C38.0802 7.95267 37.6392 7.81967 37.0465 7.661C36.3979 7.493 35.8822 7.31333 35.4995 7.122C35.1215 6.926 34.8509 6.69967 34.6875 6.443C34.5289 6.18167 34.4495 5.86667 34.4495 5.498C34.4495 5.04067 34.5709 4.64167 34.8135 4.301C35.0562 3.96033 35.3969 3.69667 35.8355 3.51C36.2789 3.32333 36.7969 3.23 37.3895 3.23C37.9682 3.23 38.4839 3.321 38.9365 3.503C39.3892 3.685 39.7555 3.944 40.0355 4.28C40.3155 4.61133 40.4835 5.001 40.5395 5.449L39.0415 5.722C38.9902 5.358 38.8199 5.071 38.5305 4.861C38.2412 4.651 37.8655 4.53667 37.4035 4.518C36.9602 4.49933 36.6009 4.574 36.3255 4.742C36.0502 4.90533 35.9125 5.13167 35.9125 5.421C35.9125 5.589 35.9639 5.73133 36.0665 5.848C36.1739 5.96467 36.3792 6.07667 36.6825 6.184C36.9859 6.29133 37.4339 6.41967 38.0265 6.569C38.6612 6.73233 39.1652 6.91433 39.5385 7.115C39.9119 7.311 40.1779 7.54667 40.3365 7.822C40.4999 8.09267 40.5815 8.42167 40.5815 8.809C40.5815 9.55567 40.3085 10.1413 39.7625 10.566C39.2212 10.9907 38.4722 11.203 37.5155 11.203Z" fill="#71717A"/>
</svg>
