<svg width="16" height="16" viewBox="0 0 16 16" fill="none" xmlns="http://www.w3.org/2000/svg">
<path d="M14 8.00003C14.0002 9.57746 13.3791 11.0915 12.2712 12.2144C11.1634 13.3373 9.65792 13.9788 8.08063 14H8.00001C6.46766 14.0038 4.99268 13.4174 3.88126 12.3625C3.83353 12.3174 3.79516 12.2633 3.76834 12.2033C3.74152 12.1433 3.72678 12.0787 3.72495 12.013C3.72312 11.9473 3.73425 11.882 3.75769 11.8206C3.78113 11.7592 3.81643 11.7031 3.86157 11.6553C3.90671 11.6076 3.96081 11.5692 4.02078 11.5424C4.08075 11.5156 4.14542 11.5009 4.21109 11.499C4.27676 11.4972 4.34214 11.5083 4.40351 11.5318C4.46488 11.5552 4.52103 11.5905 4.56876 11.6357C5.28363 12.3098 6.18131 12.7584 7.14965 12.9254C8.11799 13.0924 9.11407 12.9703 10.0134 12.5745C10.9128 12.1786 11.6756 11.5265 12.2066 10.6997C12.7375 9.87285 13.013 8.90789 12.9987 7.92537C12.9844 6.94284 12.6809 5.9863 12.1262 5.17525C11.5714 4.36421 10.79 3.7346 9.87945 3.36509C8.96894 2.99558 7.96974 2.90255 7.00666 3.09762C6.04359 3.29269 5.15934 3.76721 4.46438 4.4619C4.45928 4.46743 4.45385 4.47264 4.44813 4.47753L3.78938 5.08065L4.85188 6.14315C4.92286 6.2128 4.97145 6.30202 4.99146 6.39942C5.01147 6.49683 5.00198 6.59798 4.96421 6.68996C4.92643 6.78195 4.86209 6.86058 4.77941 6.91581C4.69672 6.97104 4.59944 7.00036 4.50001 7.00003H1.50001C1.3674 7.00003 1.24022 6.94735 1.14646 6.85358C1.05269 6.75981 1.00001 6.63264 1.00001 6.50003V3.50003C0.999433 3.40087 1.02836 3.30377 1.0831 3.22109C1.13784 3.13841 1.21594 3.07387 1.30745 3.03569C1.39897 2.9975 1.49977 2.98739 1.59705 3.00663C1.69432 3.02588 1.78368 3.07362 1.85376 3.14378L3.08188 4.37503L3.76563 3.75003C4.60562 2.9133 5.67468 2.3442 6.83784 2.11455C8.001 1.8849 9.20613 2.00501 10.3011 2.45971C11.3961 2.91441 12.3318 3.68332 12.9901 4.66937C13.6484 5.65542 13.9998 6.81441 14 8.00003Z" fill="black"/>
</svg>
