<svg width="16" height="16" viewBox="0 0 16 16" fill="none" xmlns="http://www.w3.org/2000/svg">
<path d="M3 2.5V13.5C3 13.6326 2.94732 13.7598 2.85355 13.8536C2.75979 13.9473 2.63261 14 2.5 14C2.36739 14 2.24021 13.9473 2.14645 13.8536C2.05268 13.7598 2 13.6326 2 13.5V2.5C2 2.36739 2.05268 2.24021 2.14645 2.14645C2.24021 2.05268 2.36739 2 2.5 2C2.63261 2 2.75979 2.05268 2.85355 2.14645C2.94732 2.24021 3 2.36739 3 2.5ZM14 7.5H9.5V3.5C9.50008 3.40105 9.4708 3.30431 9.41586 3.22201C9.36092 3.13971 9.28281 3.07556 9.19139 3.03769C9.09998 2.99981 8.99939 2.98991 8.90235 3.00924C8.8053 3.02856 8.71618 3.07624 8.64625 3.14625L4.14625 7.64625C4.09976 7.69269 4.06288 7.74783 4.03772 7.80853C4.01256 7.86923 3.99961 7.93429 3.99961 8C3.99961 8.06571 4.01256 8.13077 4.03772 8.19147C4.06288 8.25217 4.09976 8.30731 4.14625 8.35375L8.64625 12.8538C8.71618 12.9238 8.8053 12.9714 8.90235 12.9908C8.99939 13.0101 9.09998 13.0002 9.19139 12.9623C9.28281 12.9244 9.36092 12.8603 9.41586 12.778C9.4708 12.6957 9.50008 12.5989 9.5 12.5V8.5H14C14.1326 8.5 14.2598 8.44732 14.3536 8.35355C14.4473 8.25979 14.5 8.13261 14.5 8C14.5 7.86739 14.4473 7.74021 14.3536 7.64645C14.2598 7.55268 14.1326 7.5 14 7.5Z" fill="#27272A"/>
</svg>
