<svg width="17" height="16" viewBox="0 0 17 16" fill="none" xmlns="http://www.w3.org/2000/svg">
<path fill-rule="evenodd" clip-rule="evenodd" d="M5.76059 5.79391C5.57313 5.98136 5.57313 6.28528 5.76059 6.47274C5.94804 6.66018 6.25196 6.66018 6.43941 6.47274L8.5 4.41214L10.5606 6.47274C10.748 6.66018 11.052 6.66018 11.2394 6.47274C11.4268 6.28528 11.4268 5.98136 11.2394 5.79391L8.83941 3.39391C8.74939 3.30389 8.6273 3.25332 8.5 3.25332C8.37269 3.25332 8.2506 3.30389 8.16059 3.39391L5.76059 5.79391ZM11.2394 10.2061C11.4268 10.0186 11.4268 9.7147 11.2394 9.52724C11.052 9.3398 10.748 9.3398 10.5606 9.52724L8.5 11.5878L6.43941 9.52724C6.25196 9.3398 5.94804 9.3398 5.76059 9.52724C5.57313 9.7147 5.57313 10.0186 5.76059 10.2061L8.16059 12.6061C8.34804 12.7935 8.65196 12.7935 8.83941 12.6061L11.2394 10.2061Z" fill="#848485"/>
</svg>
