<svg width="256" height="202" viewBox="0 0 256 202" fill="none" xmlns="http://www.w3.org/2000/svg">
<rect x="0.5" y="0.630432" width="255" height="200.739" rx="15.5" fill="white"/>
<rect x="0.5" y="0.630432" width="255" height="200.739" rx="15.5" stroke="#E4E4E7"/>
<g clip-path="url(#clip0_883_473)">
<mask id="path-3-inside-1_883_473" fill="white">
<path d="M16 16.1304H115V40.1304H16V16.1304Z"/>
</mask>
<path d="M16 40.6304H16.99V39.6304H16V40.6304ZM18.97 40.6304H20.95V39.6304H18.97V40.6304ZM22.93 40.6304H24.91V39.6304H22.93V40.6304ZM26.89 40.6304H28.87V39.6304H26.89V40.6304ZM30.85 40.6304H32.83V39.6304H30.85V40.6304ZM34.81 40.6304H36.79V39.6304H34.81V40.6304ZM38.77 40.6304H40.75V39.6304H38.77V40.6304ZM42.73 40.6304H44.71V39.6304H42.73V40.6304ZM46.69 40.6304H48.67V39.6304H46.69V40.6304ZM50.65 40.6304H52.63V39.6304H50.65V40.6304ZM54.61 40.6304H56.59V39.6304H54.61V40.6304ZM58.57 40.6304H60.55V39.6304H58.57V40.6304ZM62.53 40.6304H64.51V39.6304H62.53V40.6304ZM66.49 40.6304H68.47V39.6304H66.49V40.6304ZM70.45 40.6304H72.43V39.6304H70.45V40.6304ZM74.41 40.6304H76.39V39.6304H74.41V40.6304ZM78.37 40.6304H80.35V39.6304H78.37V40.6304ZM82.33 40.6304H84.31V39.6304H82.33V40.6304ZM86.29 40.6304H88.27V39.6304H86.29V40.6304ZM90.25 40.6304H92.23V39.6304H90.25V40.6304ZM94.21 40.6304H96.19V39.6304H94.21V40.6304ZM98.17 40.6304H100.15V39.6304H98.17V40.6304ZM102.13 40.6304H104.11V39.6304H102.13V40.6304ZM106.09 40.6304H108.07V39.6304H106.09V40.6304ZM110.05 40.6304H112.03V39.6304H110.05V40.6304ZM114.01 40.6304H115V39.6304H114.01V40.6304ZM16 41.1304H16.99V39.1304H16V41.1304ZM18.97 41.1304H20.95V39.1304H18.97V41.1304ZM22.93 41.1304H24.91V39.1304H22.93V41.1304ZM26.89 41.1304H28.87V39.1304H26.89V41.1304ZM30.85 41.1304H32.83V39.1304H30.85V41.1304ZM34.81 41.1304H36.79V39.1304H34.81V41.1304ZM38.77 41.1304H40.75V39.1304H38.77V41.1304ZM42.73 41.1304H44.71V39.1304H42.73V41.1304ZM46.69 41.1304H48.67V39.1304H46.69V41.1304ZM50.65 41.1304H52.63V39.1304H50.65V41.1304ZM54.61 41.1304H56.59V39.1304H54.61V41.1304ZM58.57 41.1304H60.55V39.1304H58.57V41.1304ZM62.53 41.1304H64.51V39.1304H62.53V41.1304ZM66.49 41.1304H68.47V39.1304H66.49V41.1304ZM70.45 41.1304H72.43V39.1304H70.45V41.1304ZM74.41 41.1304H76.39V39.1304H74.41V41.1304ZM78.37 41.1304H80.35V39.1304H78.37V41.1304ZM82.33 41.1304H84.31V39.1304H82.33V41.1304ZM86.29 41.1304H88.27V39.1304H86.29V41.1304ZM90.25 41.1304H92.23V39.1304H90.25V41.1304ZM94.21 41.1304H96.19V39.1304H94.21V41.1304ZM98.17 41.1304H100.15V39.1304H98.17V41.1304ZM102.13 41.1304H104.11V39.1304H102.13V41.1304ZM106.09 41.1304H108.07V39.1304H106.09V41.1304ZM110.05 41.1304H112.03V39.1304H110.05V41.1304ZM114.01 41.1304H115V39.1304H114.01V41.1304Z" fill="#D4D4D8" mask="url(#path-3-inside-1_883_473)"/>
<path d="M19.56 34.1304L16.216 22.6104H17.968L20.392 31.3224L22.816 22.6184L24.576 22.6104L27 31.3224L29.424 22.6104H31.184L27.832 34.1304H26.168L23.696 25.5144L21.224 34.1304H19.56ZM35.4051 34.3704C34.5465 34.3704 33.7918 34.1838 33.1411 33.8104C32.4958 33.4318 31.9918 32.9064 31.6291 32.2344C31.2718 31.5571 31.0931 30.7731 31.0931 29.8824C31.0931 28.9384 31.2691 28.1198 31.6211 27.4264C31.9785 26.7331 32.4745 26.1971 33.1091 25.8184C33.7438 25.4398 34.4825 25.2504 35.3251 25.2504C36.2051 25.2504 36.9545 25.4558 37.5731 25.8664C38.1918 26.2718 38.6531 26.8504 38.9571 27.6024C39.2665 28.3544 39.3891 29.2478 39.3251 30.2824H37.6531V29.6744C37.6425 28.6718 37.4505 27.9304 37.0771 27.4504C36.7091 26.9704 36.1465 26.7304 35.3891 26.7304C34.5518 26.7304 33.9225 26.9944 33.5011 27.5224C33.0798 28.0504 32.8691 28.8131 32.8691 29.8104C32.8691 30.7598 33.0798 31.4958 33.5011 32.0184C33.9225 32.5358 34.5305 32.7944 35.3251 32.7944C35.8478 32.7944 36.2985 32.6771 36.6771 32.4424C37.0611 32.2024 37.3598 31.8611 37.5731 31.4184L39.2131 31.9384C38.8771 32.7118 38.3678 33.3118 37.6851 33.7384C37.0025 34.1598 36.2425 34.3704 35.4051 34.3704ZM32.3251 30.2824V28.9784H38.4931V30.2824H32.3251ZM44.952 34.3704C44.0933 34.3704 43.3387 34.1838 42.688 33.8104C42.0427 33.4318 41.5387 32.9064 41.176 32.2344C40.8187 31.5571 40.64 30.7731 40.64 29.8824C40.64 28.9384 40.816 28.1198 41.168 27.4264C41.5253 26.7331 42.0213 26.1971 42.656 25.8184C43.2907 25.4398 44.0293 25.2504 44.872 25.2504C45.752 25.2504 46.5013 25.4558 47.12 25.8664C47.7387 26.2718 48.2 26.8504 48.504 27.6024C48.8133 28.3544 48.936 29.2478 48.872 30.2824H47.2V29.6744C47.1893 28.6718 46.9973 27.9304 46.624 27.4504C46.256 26.9704 45.6933 26.7304 44.936 26.7304C44.0987 26.7304 43.4693 26.9944 43.048 27.5224C42.6267 28.0504 42.416 28.8131 42.416 29.8104C42.416 30.7598 42.6267 31.4958 43.048 32.0184C43.4693 32.5358 44.0773 32.7944 44.872 32.7944C45.3947 32.7944 45.8453 32.6771 46.224 32.4424C46.608 32.2024 46.9067 31.8611 47.12 31.4184L48.76 31.9384C48.424 32.7118 47.9147 33.3118 47.232 33.7384C46.5493 34.1598 45.7893 34.3704 44.952 34.3704ZM41.872 30.2824V28.9784H48.04V30.2824H41.872ZM50.6589 34.1304L50.6669 22.6104H52.3629V29.6504L55.7549 25.4904H57.8829L54.2989 29.8104L58.2509 34.1304H55.9789L52.3629 29.9704V34.1304H50.6589ZM59.2175 34.1304V22.3704H60.8895V34.1304H59.2175ZM64.4599 37.9704L66.1319 33.4184L66.1559 34.7624L62.3879 25.4904H64.1319L66.9479 32.6504H66.4359L69.1239 25.4904H70.8199L66.0519 37.9704H64.4599ZM79.3323 34.3704C78.5056 34.3704 77.8123 34.1704 77.2523 33.7704C76.6923 33.3651 76.2683 32.8184 75.9803 32.1304C75.6923 31.4424 75.5483 30.6664 75.5483 29.8024C75.5483 28.9384 75.6896 28.1624 75.9723 27.4744C76.2603 26.7864 76.6816 26.2451 77.2363 25.8504C77.7963 25.4504 78.4843 25.2504 79.3003 25.2504C80.1109 25.2504 80.8096 25.4504 81.3963 25.8504C81.9883 26.2451 82.4443 26.7864 82.7643 27.4744C83.0843 28.1571 83.2443 28.9331 83.2443 29.8024C83.2443 30.6664 83.0843 31.4451 82.7643 32.1384C82.4496 32.8264 81.9989 33.3704 81.4123 33.7704C80.8309 34.1704 80.1376 34.3704 79.3323 34.3704ZM75.2683 37.9704V25.4904H76.7563V31.7064H76.9483V37.9704H75.2683ZM79.1003 32.8584C79.6336 32.8584 80.0736 32.7224 80.4203 32.4504C80.7723 32.1784 81.0336 31.8131 81.2043 31.3544C81.3803 30.8904 81.4683 30.3731 81.4683 29.8024C81.4683 29.2371 81.3803 28.7251 81.2043 28.2664C81.0336 27.8078 80.7696 27.4424 80.4123 27.1704C80.0549 26.8984 79.5989 26.7624 79.0443 26.7624C78.5216 26.7624 78.0896 26.8904 77.7483 27.1464C77.4123 27.4024 77.1616 27.7598 76.9963 28.2184C76.8363 28.6771 76.7563 29.2051 76.7563 29.8024C76.7563 30.3998 76.8363 30.9278 76.9963 31.3864C77.1563 31.8451 77.4096 32.2051 77.7563 32.4664C78.1029 32.7278 78.5509 32.8584 79.1003 32.8584ZM85.1706 34.1304V22.3704H86.8426V34.1304H85.1706ZM91.685 34.3704C91.045 34.3704 90.509 34.2531 90.077 34.0184C89.645 33.7784 89.317 33.4638 89.093 33.0744C88.8743 32.6798 88.765 32.2478 88.765 31.7784C88.765 31.3411 88.8423 30.9571 88.997 30.6264C89.1517 30.2958 89.381 30.0158 89.685 29.7864C89.989 29.5518 90.3623 29.3624 90.805 29.2184C91.189 29.1064 91.6237 29.0078 92.109 28.9224C92.5943 28.8371 93.1037 28.7571 93.637 28.6824C94.1757 28.6078 94.709 28.5331 95.237 28.4584L94.629 28.7944C94.6397 28.1171 94.4957 27.6158 94.197 27.2904C93.9037 26.9598 93.397 26.7944 92.677 26.7944C92.2237 26.7944 91.8077 26.9011 91.429 27.1144C91.0503 27.3224 90.7863 27.6691 90.637 28.1544L89.077 27.6744C89.2903 26.9331 89.6957 26.3438 90.293 25.9064C90.8957 25.4691 91.6957 25.2504 92.693 25.2504C93.4663 25.2504 94.1383 25.3838 94.709 25.6504C95.285 25.9118 95.7063 26.3278 95.973 26.8984C96.1117 27.1811 96.197 27.4798 96.229 27.7944C96.261 28.1091 96.277 28.4478 96.277 28.8104V34.1304H94.797V32.1544L95.085 32.4104C94.7277 33.0718 94.2717 33.5651 93.717 33.8904C93.1677 34.2104 92.4903 34.3704 91.685 34.3704ZM91.981 33.0024C92.4557 33.0024 92.8637 32.9198 93.205 32.7544C93.5463 32.5838 93.821 32.3678 94.029 32.1064C94.237 31.8451 94.373 31.5731 94.437 31.2904C94.5277 31.0344 94.5783 30.7464 94.589 30.4264C94.605 30.1064 94.613 29.8504 94.613 29.6584L95.157 29.8584C94.629 29.9384 94.149 30.0104 93.717 30.0744C93.285 30.1384 92.893 30.2024 92.541 30.2664C92.1943 30.3251 91.885 30.3971 91.613 30.4824C91.3837 30.5624 91.1783 30.6584 90.997 30.7704C90.821 30.8824 90.6797 31.0184 90.573 31.1784C90.4717 31.3384 90.421 31.5331 90.421 31.7624C90.421 31.9864 90.477 32.1944 90.589 32.3864C90.701 32.5731 90.8717 32.7224 91.101 32.8344C91.3303 32.9464 91.6237 33.0024 91.981 33.0024ZM99.038 37.9704L100.71 33.4184L100.734 34.7624L96.966 25.4904H98.71L101.526 32.6504H101.014L103.702 25.4904H105.398L100.63 37.9704H99.038ZM109.955 34.3624C108.905 34.3624 108.049 34.1304 107.387 33.6664C106.726 33.2024 106.321 32.5491 106.171 31.7064L107.883 31.4424C107.99 31.8904 108.235 32.2451 108.619 32.5064C109.009 32.7624 109.491 32.8904 110.067 32.8904C110.59 32.8904 110.998 32.7838 111.291 32.5704C111.59 32.3571 111.739 32.0638 111.739 31.6904C111.739 31.4718 111.686 31.2958 111.579 31.1624C111.478 31.0238 111.262 30.8931 110.931 30.7704C110.601 30.6478 110.097 30.4958 109.419 30.3144C108.678 30.1224 108.089 29.9171 107.651 29.6984C107.219 29.4744 106.91 29.2158 106.723 28.9224C106.542 28.6238 106.451 28.2638 106.451 27.8424C106.451 27.3198 106.59 26.8638 106.867 26.4744C107.145 26.0851 107.534 25.7838 108.035 25.5704C108.542 25.3571 109.134 25.2504 109.811 25.2504C110.473 25.2504 111.062 25.3544 111.579 25.5624C112.097 25.7704 112.515 26.0664 112.835 26.4504C113.155 26.8291 113.347 27.2744 113.411 27.7864L111.699 28.0984C111.641 27.6824 111.446 27.3544 111.115 27.1144C110.785 26.8744 110.355 26.7438 109.827 26.7224C109.321 26.7011 108.91 26.7864 108.595 26.9784C108.281 27.1651 108.123 27.4238 108.123 27.7544C108.123 27.9464 108.182 28.1091 108.299 28.2424C108.422 28.3758 108.657 28.5038 109.003 28.6264C109.35 28.7491 109.862 28.8958 110.539 29.0664C111.265 29.2531 111.841 29.4611 112.267 29.6904C112.694 29.9144 112.998 30.1838 113.179 30.4984C113.366 30.8078 113.459 31.1838 113.459 31.6264C113.459 32.4798 113.147 33.1491 112.523 33.6344C111.905 34.1198 111.049 34.3624 109.955 34.3624Z" fill="#27272A"/>
<path d="M18.544 73.1304L24.352 58.9224H16.96V55.8504H27.856V58.9224L22.072 73.1304H18.544ZM35.7747 73.4424C34.9107 73.4424 34.0867 73.2704 33.3027 72.9264C32.5187 72.5744 31.8347 72.0824 31.2507 71.4504C30.6747 70.8184 30.2627 70.0744 30.0147 69.2184L33.1827 68.3784C33.3507 69.0104 33.6787 69.5024 34.1667 69.8544C34.6627 70.1984 35.1987 70.3704 35.7747 70.3704C36.2707 70.3704 36.7227 70.2504 37.1307 70.0104C37.5467 69.7704 37.8747 69.4464 38.1147 69.0384C38.3627 68.6304 38.4867 68.1784 38.4867 67.6824C38.4867 66.9384 38.2307 66.3024 37.7187 65.7744C37.2147 65.2384 36.5667 64.9704 35.7747 64.9704C35.5347 64.9704 35.3027 65.0064 35.0787 65.0784C34.8547 65.1424 34.6387 65.2344 34.4307 65.3544L32.9667 62.7864L38.4627 58.2264L38.7027 58.9224H30.6867V55.8504H41.4867V58.9224L37.2147 63.0504L37.1907 62.1384C38.1827 62.2904 39.0187 62.6384 39.6987 63.1824C40.3867 63.7184 40.9067 64.3824 41.2587 65.1744C41.6187 65.9584 41.7987 66.7944 41.7987 67.6824C41.7987 68.7704 41.5227 69.7504 40.9707 70.6224C40.4187 71.4864 39.6867 72.1744 38.7747 72.6864C37.8627 73.1904 36.8627 73.4424 35.7747 73.4424ZM50.6984 73.4904C49.5304 73.4904 48.4904 73.2544 47.5784 72.7824C46.6744 72.3024 45.9624 71.6464 45.4424 70.8144C44.9304 69.9744 44.6744 69.0184 44.6744 67.9464C44.6744 67.0344 44.8784 66.1744 45.2864 65.3664C45.7024 64.5584 46.2984 63.8984 47.0744 63.3864L47.0024 64.3944C46.4184 63.8264 45.9584 63.2264 45.6224 62.5944C45.2944 61.9624 45.1304 61.2504 45.1304 60.4584C45.1304 59.4584 45.3664 58.5864 45.8384 57.8424C46.3184 57.0984 46.9744 56.5224 47.8064 56.1144C48.6464 55.6984 49.6104 55.4904 50.6984 55.4904C51.7864 55.4904 52.7464 55.6984 53.5784 56.1144C54.4184 56.5224 55.0744 57.0984 55.5464 57.8424C56.0264 58.5864 56.2664 59.4584 56.2664 60.4584C56.2664 61.2504 56.1104 61.9624 55.7984 62.5944C55.4864 63.2184 55.0104 63.8264 54.3704 64.4184V63.4104C55.1304 63.8904 55.7144 64.5384 56.1224 65.3544C56.5384 66.1704 56.7464 67.0344 56.7464 67.9464C56.7464 69.0184 56.4864 69.9744 55.9664 70.8144C55.4464 71.6464 54.7304 72.3024 53.8184 72.7824C52.9064 73.2544 51.8664 73.4904 50.6984 73.4904ZM50.6984 70.4184C51.4664 70.4184 52.0904 70.2104 52.5704 69.7944C53.0504 69.3784 53.2904 68.7624 53.2904 67.9464C53.2904 67.1384 53.0504 66.5224 52.5704 66.0984C52.0904 65.6664 51.4664 65.4504 50.6984 65.4504C49.9304 65.4504 49.3104 65.6664 48.8384 66.0984C48.3664 66.5224 48.1304 67.1384 48.1304 67.9464C48.1304 68.7624 48.3664 69.3784 48.8384 69.7944C49.3104 70.2104 49.9304 70.4184 50.6984 70.4184ZM50.6984 62.3544C51.3224 62.3544 51.8304 62.2024 52.2224 61.8984C52.6144 61.5864 52.8104 61.1064 52.8104 60.4584C52.8104 59.8104 52.6144 59.3304 52.2224 59.0184C51.8304 58.6984 51.3224 58.5384 50.6984 58.5384C50.0744 58.5384 49.5664 58.6984 49.1744 59.0184C48.7824 59.3304 48.5864 59.8104 48.5864 60.4584C48.5864 61.1064 48.7824 61.5864 49.1744 61.8984C49.5664 62.2024 50.0744 62.3544 50.6984 62.3544ZM59.6275 76.3704L59.8195 75.0024C60.2035 75.0344 60.5155 74.9704 60.7555 74.8104C60.9955 74.6584 61.1595 74.4344 61.2475 74.1384C61.3435 73.8504 61.3635 73.5144 61.3075 73.1304H59.6275V69.8664H62.8915V73.1304C62.8915 74.2824 62.6235 75.1544 62.0875 75.7464C61.5515 76.3384 60.7315 76.5464 59.6275 76.3704ZM73.2453 73.4904C72.0773 73.4904 71.0373 73.2544 70.1253 72.7824C69.2213 72.3024 68.5093 71.6464 67.9893 70.8144C67.4773 69.9744 67.2213 69.0184 67.2213 67.9464C67.2213 67.0344 67.4253 66.1744 67.8333 65.3664C68.2493 64.5584 68.8453 63.8984 69.6213 63.3864L69.5493 64.3944C68.9653 63.8264 68.5053 63.2264 68.1693 62.5944C67.8413 61.9624 67.6773 61.2504 67.6773 60.4584C67.6773 59.4584 67.9133 58.5864 68.3853 57.8424C68.8653 57.0984 69.5213 56.5224 70.3533 56.1144C71.1933 55.6984 72.1573 55.4904 73.2453 55.4904C74.3333 55.4904 75.2933 55.6984 76.1253 56.1144C76.9653 56.5224 77.6213 57.0984 78.0933 57.8424C78.5733 58.5864 78.8133 59.4584 78.8133 60.4584C78.8133 61.2504 78.6573 61.9624 78.3453 62.5944C78.0333 63.2184 77.5573 63.8264 76.9173 64.4184V63.4104C77.6773 63.8904 78.2613 64.5384 78.6693 65.3544C79.0853 66.1704 79.2933 67.0344 79.2933 67.9464C79.2933 69.0184 79.0333 69.9744 78.5133 70.8144C77.9933 71.6464 77.2773 72.3024 76.3653 72.7824C75.4533 73.2544 74.4133 73.4904 73.2453 73.4904ZM73.2453 70.4184C74.0133 70.4184 74.6373 70.2104 75.1173 69.7944C75.5973 69.3784 75.8373 68.7624 75.8373 67.9464C75.8373 67.1384 75.5973 66.5224 75.1173 66.0984C74.6373 65.6664 74.0133 65.4504 73.2453 65.4504C72.4773 65.4504 71.8573 65.6664 71.3853 66.0984C70.9133 66.5224 70.6773 67.1384 70.6773 67.9464C70.6773 68.7624 70.9133 69.3784 71.3853 69.7944C71.8573 70.2104 72.4773 70.4184 73.2453 70.4184ZM73.2453 62.3544C73.8693 62.3544 74.3773 62.2024 74.7693 61.8984C75.1613 61.5864 75.3573 61.1064 75.3573 60.4584C75.3573 59.8104 75.1613 59.3304 74.7693 59.0184C74.3773 58.6984 73.8693 58.5384 73.2453 58.5384C72.6213 58.5384 72.1133 58.6984 71.7213 59.0184C71.3293 59.3304 71.1333 59.8104 71.1333 60.4584C71.1333 61.1064 71.3293 61.5864 71.7213 61.8984C72.1133 62.2024 72.6213 62.3544 73.2453 62.3544ZM89.4464 73.1304V70.4424H81.9344V67.3944L87.3824 55.8504H91.1264L85.6784 67.3944H89.4464V63.0744H92.7584V67.3944H94.2944V70.4424H92.7584V73.1304H89.4464ZM101.997 55.5144C103.141 55.5144 104.165 55.7824 105.069 56.3184C105.981 56.8544 106.701 57.6024 107.229 58.5624C107.757 59.5144 108.021 60.6184 108.021 61.8744V66.8904C108.021 68.2504 107.757 69.4264 107.229 70.4184C106.701 71.4024 105.957 72.1624 104.997 72.6984C104.037 73.2264 102.909 73.4904 101.613 73.4904C100.773 73.4904 99.9734 73.3664 99.2134 73.1184C98.4614 72.8624 97.7654 72.4424 97.1254 71.8584L99.4534 69.5304C99.7414 69.8184 100.073 70.0424 100.449 70.2024C100.833 70.3624 101.221 70.4424 101.613 70.4424C102.237 70.4424 102.777 70.2984 103.233 70.0104C103.697 69.7144 104.053 69.3344 104.301 68.8704C104.557 68.3984 104.685 67.8984 104.685 67.3704V64.8024L105.237 65.4024C104.749 65.9064 104.177 66.2944 103.521 66.5664C102.865 66.8304 102.189 66.9624 101.493 66.9624C100.405 66.9624 99.4454 66.7184 98.6134 66.2304C97.7894 65.7424 97.1414 65.0744 96.6694 64.2264C96.2054 63.3784 95.9734 62.4104 95.9734 61.3224C95.9734 60.2344 96.2494 59.2544 96.8014 58.3824C97.3534 57.5024 98.0854 56.8064 98.9974 56.2944C99.9094 55.7744 100.909 55.5144 101.997 55.5144ZM101.997 58.6344C101.501 58.6344 101.045 58.7544 100.629 58.9944C100.221 59.2344 99.8934 59.5584 99.6454 59.9664C99.4054 60.3744 99.2854 60.8264 99.2854 61.3224C99.2854 61.8184 99.4054 62.2744 99.6454 62.6904C99.8854 63.0984 100.209 63.4264 100.617 63.6744C101.025 63.9144 101.477 64.0344 101.973 64.0344C102.469 64.0344 102.921 63.9144 103.329 63.6744C103.745 63.4264 104.073 63.0984 104.313 62.6904C104.561 62.2744 104.685 61.8184 104.685 61.3224C104.685 60.8424 104.565 60.3984 104.325 59.9904C104.085 59.5824 103.761 59.2544 103.353 59.0064C102.945 58.7584 102.493 58.6344 101.997 58.6344Z" fill="#27272A"/>
<path d="M189.333 28.1304L194 23.4638L198.667 28.1304" stroke="#16A34A" stroke-width="2" stroke-linecap="round" stroke-linejoin="round"/>
<path d="M194 32.7971V23.4638" stroke="#16A34A" stroke-width="2" stroke-linecap="round" stroke-linejoin="round"/>
<path d="M213.12 34.1304V24.7144L210.96 26.0344V23.9064L213.12 22.6104H215.088V34.1304H213.12ZM218.72 34.1304L222.688 24.4344H217.656V22.6104H224.752V24.4344L220.8 34.1304H218.72ZM228.267 34.1304L226.987 32.8504L237.235 22.6104L238.515 23.8984L228.267 34.1304ZM236.115 34.3704C235.587 34.3704 235.104 34.2424 234.667 33.9864C234.235 33.7251 233.888 33.3784 233.627 32.9464C233.366 32.5091 233.235 32.0238 233.235 31.4904C233.235 30.9678 233.368 30.4878 233.635 30.0504C233.902 29.6131 234.254 29.2638 234.691 29.0024C235.128 28.7411 235.603 28.6104 236.115 28.6104C236.643 28.6104 237.126 28.7411 237.563 29.0024C238 29.2584 238.347 29.6051 238.603 30.0424C238.864 30.4744 238.995 30.9571 238.995 31.4904C238.995 32.0238 238.864 32.5091 238.603 32.9464C238.347 33.3784 238 33.7251 237.563 33.9864C237.126 34.2424 236.643 34.3704 236.115 34.3704ZM236.115 32.7224C236.334 32.7224 236.536 32.6664 236.723 32.5544C236.915 32.4424 237.067 32.2931 237.179 32.1064C237.291 31.9198 237.347 31.7144 237.347 31.4904C237.347 31.2664 237.291 31.0611 237.179 30.8744C237.067 30.6878 236.915 30.5384 236.723 30.4264C236.536 30.3144 236.334 30.2584 236.115 30.2584C235.891 30.2584 235.686 30.3144 235.499 30.4264C235.312 30.5384 235.16 30.6878 235.043 30.8744C234.931 31.0611 234.875 31.2664 234.875 31.4904C234.875 31.7144 234.931 31.9198 235.043 32.1064C235.16 32.2931 235.312 32.4424 235.499 32.5544C235.686 32.6664 235.891 32.7224 236.115 32.7224ZM229.387 28.1304C228.859 28.1304 228.376 28.0024 227.939 27.7464C227.502 27.4851 227.152 27.1384 226.891 26.7064C226.635 26.2691 226.507 25.7838 226.507 25.2504C226.507 24.7278 226.64 24.2478 226.907 23.8104C227.174 23.3731 227.526 23.0238 227.963 22.7624C228.4 22.5011 228.875 22.3704 229.387 22.3704C229.915 22.3704 230.395 22.5011 230.827 22.7624C231.264 23.0184 231.614 23.3651 231.875 23.8024C232.136 24.2344 232.267 24.7171 232.267 25.2504C232.267 25.7838 232.136 26.2691 231.875 26.7064C231.614 27.1384 231.264 27.4851 230.827 27.7464C230.395 28.0024 229.915 28.1304 229.387 28.1304ZM229.387 26.4824C229.611 26.4824 229.816 26.4264 230.003 26.3144C230.19 26.2024 230.339 26.0531 230.451 25.8664C230.563 25.6798 230.619 25.4744 230.619 25.2504C230.619 25.0264 230.563 24.8211 230.451 24.6344C230.339 24.4478 230.19 24.2984 230.003 24.1864C229.816 24.0744 229.611 24.0184 229.387 24.0184C229.163 24.0184 228.958 24.0744 228.771 24.1864C228.584 24.2984 228.435 24.4478 228.323 24.6344C228.211 24.8211 228.155 25.0264 228.155 25.2504C228.155 25.4744 228.211 25.6798 228.323 25.8664C228.435 26.0531 228.584 26.2024 228.771 26.3144C228.958 26.4264 229.163 26.4824 229.387 26.4824Z" fill="#71717A"/>
<path d="M90.5 137.13L53.625 123.13L16 160.63V185.87H240V96.1304L202.504 114.13L165.187 150.63L129.75 117.13L90.5 137.13Z" fill="url(#paint0_linear_883_473)"/>
<path d="M16 160.63L53.8993 123.13L90.5 136.63L130 116.63L165 150.13L202.504 113.13L240 96.1304" stroke="#16A34A" stroke-width="2" stroke-linecap="round"/>
</g>
<defs>
<linearGradient id="paint0_linear_883_473" x1="122.75" y1="146.13" x2="118.109" y2="208.787" gradientUnits="userSpaceOnUse">
<stop stop-color="#8AF9B2" stop-opacity="0.34"/>
<stop offset="1" stop-color="white" stop-opacity="0"/>
</linearGradient>
<clipPath id="clip0_883_473">
<rect x="16" y="16.1304" width="224" height="169.739" rx="8" fill="white"/>
</clipPath>
</defs>
</svg>
