<svg width="20" height="20" viewBox="0 0 20 20" fill="none" xmlns="http://www.w3.org/2000/svg">
<path d="M13.3334 6.66667H8.33341C7.89139 6.66667 7.46746 6.84226 7.1549 7.15482C6.84234 7.46738 6.66675 7.89131 6.66675 8.33333C6.66675 8.77536 6.84234 9.19928 7.1549 9.51185C7.46746 9.82441 7.89139 10 8.33341 10H11.6667C12.1088 10 12.5327 10.1756 12.8453 10.4882C13.1578 10.8007 13.3334 11.2246 13.3334 11.6667C13.3334 12.1087 13.1578 12.5326 12.8453 12.8452C12.5327 13.1577 12.1088 13.3333 11.6667 13.3333H6.66675M10.0001 15V5M18.3334 10C18.3334 14.6024 14.6025 18.3333 10.0001 18.3333C5.39771 18.3333 1.66675 14.6024 1.66675 10C1.66675 5.39763 5.39771 1.66667 10.0001 1.66667C14.6025 1.66667 18.3334 5.39763 18.3334 10Z" stroke="#71717A" stroke-linecap="round" stroke-linejoin="round"/>
</svg>
