<svg width="40" height="40" viewBox="0 0 40 40" fill="none" xmlns="http://www.w3.org/2000/svg">
<path d="M16.8334 3.63334C18.9248 3.22563 21.0753 3.22563 23.1667 3.63334M29.3334 6.18334C31.1038 7.38043 32.6262 8.90846 33.8167 10.6833M36.3667 16.8333C36.7744 18.9248 36.7744 21.0752 36.3667 23.1667M33.8167 29.3333C32.6196 31.1038 31.0916 32.6262 29.3167 33.8167M23.1667 36.3667C21.0752 36.774 18.9248 36.774 16.8334 36.3667M10.6667 33.8167C8.89624 32.6196 7.37387 31.0916 6.18335 29.3167M3.63335 23.1667C3.22565 21.0752 3.22565 18.9248 3.63335 16.8333M6.18335 10.6667C7.38045 8.89622 8.90847 7.37385 10.6834 6.18334" stroke="#27272A" stroke-linecap="round" stroke-linejoin="round"/>
</svg>
