<svg width="17" height="15" viewBox="0 0 17 15" fill="none" xmlns="http://www.w3.org/2000/svg">
<path d="M8.00012 3.75012V7.14621L5.17824 8.83918C5.03611 8.92455 4.9337 9.06288 4.89355 9.22375C4.85341 9.38462 4.87881 9.55485 4.96418 9.69699C5.04955 9.83913 5.18788 9.94154 5.34875 9.98168C5.50963 10.0218 5.67985 9.99642 5.82199 9.91106L8.94699 8.03606C9.03948 7.98049 9.11601 7.90192 9.16913 7.808C9.22225 7.71409 9.25015 7.60802 9.25012 7.50012V3.75012C9.25012 3.58436 9.18427 3.42539 9.06706 3.30818C8.94985 3.19097 8.79088 3.12512 8.62512 3.12512C8.45936 3.12512 8.30039 3.19097 8.18318 3.30818C8.06597 3.42539 8.00012 3.58436 8.00012 3.75012ZM0.886057 1.92277C1.00025 1.8754 1.12592 1.86296 1.24718 1.88701C1.36845 1.91107 1.47985 1.97055 1.56731 2.05793L2.53137 3.02434C2.78371 2.75012 3.04387 2.47746 3.32043 2.19699C4.36273 1.15458 5.68912 0.442429 7.13384 0.149536C8.57857 -0.143358 10.0776 -0.00400893 11.4436 0.55017C12.8096 1.10435 13.9819 2.04878 14.8142 3.26546C15.6465 4.48214 16.1018 5.91712 16.1232 7.39108C16.1446 8.86505 15.7312 10.3126 14.9346 11.553C14.138 12.7933 12.9935 13.7714 11.6442 14.365C10.2949 14.9586 8.80058 15.1415 7.34795 14.8906C5.89532 14.6398 4.54882 13.9665 3.47668 12.9548C3.41697 12.8984 3.36896 12.8307 3.33539 12.7558C3.30182 12.6808 3.28334 12.5999 3.28102 12.5178C3.2787 12.4357 3.29258 12.3539 3.32186 12.2771C3.35114 12.2004 3.39525 12.1301 3.45168 12.0704C3.50811 12.0107 3.57574 11.9627 3.65073 11.9291C3.72571 11.8956 3.80657 11.8771 3.88869 11.8748C3.97081 11.8724 4.05259 11.8863 4.12935 11.9156C4.20611 11.9449 4.27635 11.989 4.33606 12.0454C5.22943 12.8884 6.35138 13.4494 7.56175 13.6585C8.77213 13.8675 10.0173 13.7152 11.1416 13.2207C12.266 12.7262 13.2197 11.9114 13.8836 10.878C14.5476 9.84462 14.8923 8.63851 14.8747 7.41034C14.8572 6.18218 14.4781 4.98641 13.7849 3.97241C13.0918 2.95842 12.1151 2.17116 10.9771 1.70897C9.83911 1.24679 8.59013 1.13018 7.38622 1.37371C6.18232 1.61723 5.07685 2.2101 4.20793 3.07824C3.93137 3.35793 3.67121 3.63293 3.41809 3.90871L4.69231 5.18293C4.77981 5.27034 4.83942 5.38175 4.86357 5.50305C4.88773 5.62435 4.87535 5.7501 4.82801 5.86436C4.78066 5.97863 4.70048 6.07627 4.59761 6.14494C4.49474 6.21361 4.3738 6.25022 4.25012 6.25012H1.12512C0.959358 6.25012 0.800387 6.18427 0.683177 6.06706C0.565967 5.94985 0.500119 5.79088 0.500119 5.62512V2.50012C0.500144 2.37651 0.536824 2.25568 0.60552 2.15291C0.674216 2.05014 0.771844 1.97006 0.886057 1.92277Z" fill="black"/>
</svg>
