<svg width="21" height="20" viewBox="0 0 21 20" fill="none" xmlns="http://www.w3.org/2000/svg">
<path d="M11.1249 6.25V9.64609L13.9468 11.3391C14.0889 11.4244 14.1913 11.5628 14.2314 11.7236C14.2716 11.8845 14.2462 12.0547 14.1608 12.1969C14.0755 12.339 13.9371 12.4414 13.7762 12.4816C13.6154 12.5217 13.4451 12.4963 13.303 12.4109L10.178 10.5359C10.0855 10.4804 10.009 10.4018 9.95587 10.3079C9.90275 10.214 9.87485 10.1079 9.87488 10V6.25C9.87488 6.08424 9.94073 5.92526 10.0579 5.80805C10.1752 5.69084 10.3341 5.625 10.4999 5.625C10.6656 5.625 10.8246 5.69084 10.9418 5.80805C11.059 5.92526 11.1249 6.08424 11.1249 6.25ZM18.2389 4.42265C18.1248 4.37528 17.9991 4.36283 17.8778 4.38689C17.7566 4.41095 17.6451 4.47043 17.5577 4.55781L16.5936 5.52421C16.3413 5.25 16.0811 4.97734 15.8046 4.69687C14.7623 3.65445 13.4359 2.94231 11.9912 2.64941C10.5464 2.35652 9.04742 2.49587 7.68143 3.05005C6.31545 3.60423 5.14306 4.54866 4.31077 5.76534C3.47847 6.98202 3.02318 8.417 3.00177 9.89096C2.98036 11.3649 3.39379 12.8125 4.1904 14.0529C4.98701 15.2932 6.13147 16.2713 7.48078 16.8649C8.8301 17.4585 10.3244 17.6413 11.7771 17.3905C13.2297 17.1397 14.5762 16.4664 15.6483 15.4547C15.708 15.3983 15.756 15.3306 15.7896 15.2556C15.8232 15.1807 15.8417 15.0998 15.844 15.0177C15.8463 14.9356 15.8324 14.8538 15.8031 14.777C15.7739 14.7003 15.7297 14.63 15.6733 14.5703C15.6169 14.5106 15.5493 14.4626 15.4743 14.429C15.3993 14.3954 15.3184 14.377 15.2363 14.3746C15.1542 14.3723 15.0724 14.3862 14.9957 14.4155C14.9189 14.4448 14.8487 14.4889 14.7889 14.5453C13.8956 15.3883 12.7736 15.9493 11.5632 16.1583C10.3529 16.3674 9.10774 16.2151 7.98339 15.7206C6.85904 15.2261 5.90532 14.4113 5.24138 13.3779C4.57744 12.3445 4.23272 11.1384 4.25026 9.91022C4.26781 8.68205 4.64686 7.48628 5.34005 6.47229C6.03325 5.4583 7.00985 4.67104 8.14787 4.20885C9.28589 3.74667 10.5349 3.63006 11.7388 3.87358C12.9427 4.11711 14.0481 4.70998 14.9171 5.57812C15.1936 5.85781 15.4538 6.13281 15.7069 6.40859L14.4327 7.68281C14.3452 7.77022 14.2856 7.88163 14.2614 8.00293C14.2373 8.12423 14.2496 8.24998 14.297 8.36424C14.3443 8.4785 14.4245 8.57615 14.5274 8.64482C14.6303 8.71349 14.7512 8.75009 14.8749 8.75H17.9999C18.1656 8.75 18.3246 8.68415 18.4418 8.56694C18.559 8.44973 18.6249 8.29076 18.6249 8.125V5C18.6249 4.87638 18.5882 4.75555 18.5195 4.65279C18.4508 4.55002 18.3532 4.46993 18.2389 4.42265Z" fill="black"/>
</svg>
