<svg width="21" height="20" viewBox="0 0 21 20" fill="none" xmlns="http://www.w3.org/2000/svg">
<g clip-path="url(#clip0_991_609)">
<path d="M20.5 10C20.5003 10.2079 20.448 10.4126 20.3478 10.5948C20.2477 10.7771 20.103 10.931 19.9273 11.0422L13.0375 15.4297C12.85 15.5496 12.6338 15.6169 12.4114 15.6247C12.189 15.6324 11.9686 15.5804 11.7732 15.4739C11.5778 15.3674 11.4146 15.2104 11.3005 15.0193C11.1865 14.8282 11.1259 14.61 11.125 14.3875V11.4734L4.9125 15.4297C4.72501 15.5496 4.50879 15.6169 4.28639 15.6247C4.064 15.6324 3.8436 15.5804 3.6482 15.4739C3.4528 15.3674 3.28957 15.2104 3.17555 15.0193C3.06153 14.8282 3.0009 14.61 3 14.3875V5.6125C3.0009 5.38997 3.06153 5.17177 3.17555 4.98067C3.28957 4.78957 3.4528 4.63259 3.6482 4.52611C3.8436 4.41963 4.064 4.36756 4.28639 4.37533C4.50879 4.38311 4.72501 4.45045 4.9125 4.57031L11.125 8.52656V5.6125C11.1259 5.38997 11.1865 5.17177 11.3005 4.98067C11.4146 4.78957 11.5778 4.63259 11.7732 4.52611C11.9686 4.41963 12.189 4.36756 12.4114 4.37533C12.6338 4.38311 12.85 4.45045 13.0375 4.57031L19.9273 8.95781C20.103 9.06904 20.2477 9.22295 20.3478 9.40519C20.448 9.58743 20.5003 9.79206 20.5 10Z" fill="#27272A"/>
</g>
<defs>
<clipPath id="clip0_991_609">
<rect width="20" height="20" fill="white" transform="translate(0.5)"/>
</clipPath>
</defs>
</svg>
