<svg width="20" height="20" viewBox="0 0 20 20" fill="none" xmlns="http://www.w3.org/2000/svg">
<path d="M7.57508 7.50002C7.771 6.94308 8.15771 6.47344 8.66671 6.1743C9.17571 5.87515 9.77416 5.7658 10.3561 5.86561C10.938 5.96543 11.4658 6.26796 11.846 6.71963C12.2262 7.1713 12.4343 7.74296 12.4334 8.33335C12.4334 10 9.93341 10.8334 9.93341 10.8334M10.0001 14.1667H10.0084M18.3334 10C18.3334 14.6024 14.6025 18.3334 10.0001 18.3334C5.39771 18.3334 1.66675 14.6024 1.66675 10C1.66675 5.39765 5.39771 1.66669 10.0001 1.66669C14.6025 1.66669 18.3334 5.39765 18.3334 10Z" stroke="#71717A" stroke-linecap="round" stroke-linejoin="round"/>
</svg>
