<svg width="20" height="20" viewBox="0 0 20 20" fill="none" xmlns="http://www.w3.org/2000/svg">
<path d="M10.0001 2.5V12.5M10.0001 12.5L6.66675 9.16667M10.0001 12.5L13.3334 9.16667M6.66675 4.16667H3.33341C2.89139 4.16667 2.46746 4.34226 2.1549 4.65482C1.84234 4.96738 1.66675 5.39131 1.66675 5.83333V14.1667C1.66675 14.6087 1.84234 15.0326 2.1549 15.3452C2.46746 15.6577 2.89139 15.8333 3.33341 15.8333H16.6667C17.1088 15.8333 17.5327 15.6577 17.8453 15.3452C18.1578 15.0326 18.3334 14.6087 18.3334 14.1667V5.83333C18.3334 5.39131 18.1578 4.96738 17.8453 4.65482C17.5327 4.34226 17.1088 4.16667 16.6667 4.16667H13.3334" stroke="#71717A" stroke-linecap="round" stroke-linejoin="round"/>
</svg>
