<svg width="40" height="40" viewBox="0 0 40 40" fill="none" xmlns="http://www.w3.org/2000/svg">
<path d="M3.33331 20H8.33331M8.33331 20C8.33331 26.4433 13.5567 31.6667 20 31.6667M8.33331 20C8.33331 13.5567 13.5567 8.33334 20 8.33334M31.6666 20H36.6666M31.6666 20C31.6666 26.4433 26.4433 31.6667 20 31.6667M31.6666 20C31.6666 13.5567 26.4433 8.33334 20 8.33334M20 3.33334V8.33334M20 31.6667V36.6667M25 20C25 22.7614 22.7614 25 20 25C17.2386 25 15 22.7614 15 20C15 17.2386 17.2386 15 20 15C22.7614 15 25 17.2386 25 20Z" stroke="#27272A" stroke-linecap="round" stroke-linejoin="round"/>
</svg>
