<svg width="20" height="20" viewBox="0 0 20 20" fill="none" xmlns="http://www.w3.org/2000/svg">
<path d="M17.9422 17.0578L14.0312 13.1469C15.167 11.7847 15.7339 10.0371 15.614 8.26758C15.494 6.49809 14.6965 4.84297 13.3873 3.64653C12.0781 2.45008 10.358 1.80445 8.58491 1.84393C6.8118 1.88342 5.12217 2.60498 3.86753 3.85852C2.61288 5.11205 1.88982 6.80104 1.84877 8.57412C1.80772 10.3472 2.45184 12.0678 3.64712 13.3781C4.8424 14.6884 6.49682 15.4873 8.26621 15.6088C10.0356 15.7304 11.7837 15.165 13.1469 14.0304L17.0578 17.9422C17.1159 18.0002 17.1848 18.0463 17.2607 18.0777C17.3366 18.1091 17.4179 18.1253 17.5 18.1253C17.5821 18.1253 17.6634 18.1091 17.7393 18.0777C17.8152 18.0463 17.8841 18.0002 17.9422 17.9422C18.0003 17.8841 18.0463 17.8152 18.0777 17.7393C18.1092 17.6634 18.1253 17.5821 18.1253 17.5C18.1253 17.4179 18.1092 17.3365 18.0777 17.2607C18.0463 17.1848 18.0003 17.1159 17.9422 17.0578ZM11.25 9.37498H6.25C6.08424 9.37498 5.92527 9.30913 5.80806 9.19192C5.69085 9.07471 5.625 8.91574 5.625 8.74998C5.625 8.58422 5.69085 8.42525 5.80806 8.30804C5.92527 8.19083 6.08424 8.12498 6.25 8.12498H11.25C11.4158 8.12498 11.5747 8.19083 11.6919 8.30804C11.8092 8.42525 11.875 8.58422 11.875 8.74998C11.875 8.91574 11.8092 9.07471 11.6919 9.19192C11.5747 9.30913 11.4158 9.37498 11.25 9.37498Z" fill="#27272A"/>
</svg>
