<svg width="20" height="20" viewBox="0 0 20 20" fill="none" xmlns="http://www.w3.org/2000/svg">
<path d="M18.3334 10.8333V4.99998C18.3334 4.55795 18.1578 4.13403 17.8453 3.82147C17.5327 3.50891 17.1088 3.33331 16.6667 3.33331H3.33341C2.89139 3.33331 2.46746 3.50891 2.1549 3.82147C1.84234 4.13403 1.66675 4.55795 1.66675 4.99998V15C1.66675 15.9166 2.41675 16.6666 3.33341 16.6666H10.0001M18.3334 5.83331L10.8584 10.5833C10.6011 10.7445 10.3037 10.83 10.0001 10.83C9.69648 10.83 9.39902 10.7445 9.14175 10.5833L1.66675 5.83331M15.8334 13.3333V18.3333M13.3334 15.8333H18.3334" stroke="#71717A" stroke-linecap="round" stroke-linejoin="round"/>
</svg>
