<svg width="33" height="32" viewBox="0 0 33 32" fill="none" xmlns="http://www.w3.org/2000/svg">
<path d="M30.5 16C30.5008 16.3395 30.4138 16.6735 30.2473 16.9694C30.0808 17.2654 29.8406 17.5132 29.55 17.6888L11.54 28.7063C11.2364 28.8922 10.8886 28.9937 10.5326 29.0003C10.1766 29.0069 9.82532 28.9183 9.515 28.7438C9.20764 28.5719 8.9516 28.3213 8.7732 28.0177C8.59481 27.7141 8.50051 27.3684 8.5 27.0163V4.98376C8.50051 4.63162 8.59481 4.28597 8.7732 3.98235C8.9516 3.67874 9.20764 3.42812 9.515 3.25626C9.82532 3.0817 10.1766 2.99314 10.5326 2.99973C10.8886 3.00632 11.2364 3.10783 11.54 3.29376L29.55 14.3113C29.8406 14.4869 30.0808 14.7347 30.2473 15.0306C30.4138 15.3265 30.5008 15.6605 30.5 16Z" fill="#27272A"/>
</svg>
