<svg width="13" height="12" viewBox="0 0 13 12" fill="none" xmlns="http://www.w3.org/2000/svg">
<path d="M-8.58307e-06 6.00003C-0.000150681 7.57746 0.620911 9.09149 1.72875 10.2144C2.83659 11.3373 4.34208 11.9788 5.91937 12H5.99999C7.53234 12.0038 9.00732 11.4174 10.1187 10.3625C10.1665 10.3174 10.2048 10.2633 10.2317 10.2033C10.2585 10.1433 10.2732 10.0787 10.275 10.013C10.2769 9.94734 10.2658 9.88196 10.2423 9.82059C10.2189 9.75922 10.1836 9.70307 10.1384 9.65534C10.0933 9.60761 10.0392 9.56924 9.97922 9.54243C9.91925 9.51561 9.85458 9.50086 9.78891 9.49903C9.72324 9.4972 9.65786 9.50833 9.59649 9.53177C9.53512 9.55521 9.47897 9.59051 9.43124 9.63565C8.71637 10.3098 7.81869 10.7584 6.85035 10.9254C5.88201 11.0924 4.88593 10.9703 3.98656 10.5745C3.08718 10.1786 2.32438 9.52654 1.79345 8.6997C1.26252 7.87285 0.986986 6.90789 1.00128 5.92537C1.01558 4.94284 1.31906 3.9863 1.87383 3.17525C2.42859 2.36421 3.21004 1.7346 4.12055 1.36509C5.03106 0.995581 6.03026 0.90255 6.99334 1.09762C7.95641 1.29269 8.84066 1.76721 9.53562 2.4619C9.54072 2.46743 9.54615 2.47264 9.55187 2.47753L10.2106 3.08065L9.14812 4.14315C9.07714 4.2128 9.02855 4.30202 9.00854 4.39942C8.98853 4.49683 8.99802 4.59798 9.03579 4.68996C9.07357 4.78195 9.13791 4.86058 9.22059 4.91581C9.30328 4.97104 9.40056 5.00036 9.49999 5.00003H12.5C12.6326 5.00003 12.7598 4.94735 12.8535 4.85358C12.9473 4.75981 13 4.63264 13 4.50003V1.50003C13.0006 1.40087 12.9716 1.30377 12.9169 1.22109C12.8622 1.13841 12.7841 1.07387 12.6925 1.03569C12.601 0.997501 12.5002 0.987388 12.403 1.00663C12.3057 1.02588 12.2163 1.07362 12.1462 1.14378L10.9181 2.37503L10.2344 1.75003C9.39438 0.913303 8.32532 0.344195 7.16216 0.114547C5.999 -0.115101 4.79387 0.00500679 3.69891 0.459707C2.60395 0.914408 1.66825 1.68332 1.00992 2.66937C0.351599 3.65542 0.000166893 4.81441 -8.58307e-06 6.00003Z" fill="black"/>
</svg>
