<svg width="21" height="20" viewBox="0 0 21 20" fill="none" xmlns="http://www.w3.org/2000/svg">
<path d="M18.625 5.6125V14.3875C18.6239 14.6099 18.5631 14.828 18.449 15.0189C18.3349 15.2099 18.1717 15.3667 17.9764 15.4732C17.7811 15.5796 17.5608 15.6317 17.3385 15.6241C17.1162 15.6164 16.9001 15.5493 16.7125 15.4297L10.5 11.4734V14.3875C10.4989 14.6099 10.4381 14.828 10.324 15.0189C10.2099 15.2099 10.0467 15.3667 9.85142 15.4732C9.65611 15.5796 9.43583 15.6317 9.21353 15.6241C8.99123 15.6164 8.77505 15.5493 8.58752 15.4297L1.69767 11.0422C1.52214 10.9308 1.37758 10.7768 1.27743 10.5946C1.17727 10.4124 1.12476 10.2079 1.12476 10C1.12476 9.79209 1.17727 9.58755 1.27743 9.40536C1.37758 9.22317 1.52214 9.06922 1.69767 8.95781L8.58752 4.57031C8.775 4.45045 8.99123 4.38311 9.21362 4.37533C9.43602 4.36756 9.65642 4.41963 9.85182 4.52611C10.0472 4.63259 10.2105 4.78957 10.3245 4.98067C10.4385 5.17177 10.4991 5.38997 10.5 5.6125V8.52656L16.7125 4.57031C16.9 4.45045 17.1162 4.38311 17.3386 4.37533C17.561 4.36756 17.7814 4.41963 17.9768 4.52611C18.1722 4.63259 18.3354 4.78957 18.4495 4.98067C18.5635 5.17177 18.6241 5.38997 18.625 5.6125Z" fill="#27272A"/>
</svg>
