<svg width="32" height="167" viewBox="0 0 32 167" fill="none" xmlns="http://www.w3.org/2000/svg">
<path d="M16 16C11.5817 16 8 19.5817 8 24C8 28.4183 11.5817 32 16 32C20.4183 32 24 28.4183 24 24C24 19.5817 20.4183 16 16 16ZM14.5 24L14.5 167L17.5 167L17.5 24L14.5 24Z" fill="#EF4444"/>
<rect x="0.5" y="0.5" width="31" height="31" rx="5.5" fill="#EF4444"/>
<rect x="0.5" y="0.5" width="31" height="31" rx="5.5" stroke="#EF4444"/>
<path d="M13.9999 16.6666C14.3681 16.6666 14.6666 16.3682 14.6666 16C14.6666 15.6318 14.3681 15.3333 13.9999 15.3333C13.6317 15.3333 13.3333 15.6318 13.3333 16C13.3333 16.3682 13.6317 16.6666 13.9999 16.6666Z" stroke="#FAFAFA" stroke-width="3" stroke-linecap="round" stroke-linejoin="round"/>
<path d="M13.9999 12C14.3681 12 14.6666 11.7015 14.6666 11.3334C14.6666 10.9652 14.3681 10.6667 13.9999 10.6667C13.6317 10.6667 13.3333 10.9652 13.3333 11.3334C13.3333 11.7015 13.6317 12 13.9999 12Z" stroke="#FAFAFA" stroke-width="3" stroke-linecap="round" stroke-linejoin="round"/>
<path d="M13.9999 21.3333C14.3681 21.3333 14.6666 21.0349 14.6666 20.6667C14.6666 20.2985 14.3681 20 13.9999 20C13.6317 20 13.3333 20.2985 13.3333 20.6667C13.3333 21.0349 13.6317 21.3333 13.9999 21.3333Z" stroke="#FAFAFA" stroke-width="3" stroke-linecap="round" stroke-linejoin="round"/>
<path d="M17.9999 16.6666C18.3681 16.6666 18.6666 16.3682 18.6666 16C18.6666 15.6318 18.3681 15.3333 17.9999 15.3333C17.6317 15.3333 17.3333 15.6318 17.3333 16C17.3333 16.3682 17.6317 16.6666 17.9999 16.6666Z" stroke="#FAFAFA" stroke-width="3" stroke-linecap="round" stroke-linejoin="round"/>
<path d="M17.9999 12C18.3681 12 18.6666 11.7015 18.6666 11.3334C18.6666 10.9652 18.3681 10.6667 17.9999 10.6667C17.6317 10.6667 17.3333 10.9652 17.3333 11.3334C17.3333 11.7015 17.6317 12 17.9999 12Z" stroke="#FAFAFA" stroke-width="3" stroke-linecap="round" stroke-linejoin="round"/>
<path d="M17.9999 21.3333C18.3681 21.3333 18.6666 21.0349 18.6666 20.6667C18.6666 20.2985 18.3681 20 17.9999 20C17.6317 20 17.3333 20.2985 17.3333 20.6667C17.3333 21.0349 17.6317 21.3333 17.9999 21.3333Z" stroke="#FAFAFA" stroke-width="3" stroke-linecap="round" stroke-linejoin="round"/>
</svg>
