<svg width="13" height="12" viewBox="0 0 13 12" fill="none" xmlns="http://www.w3.org/2000/svg">
<path d="M13 6.00003C13.0002 7.57746 12.3791 9.09149 11.2712 10.2144C10.1634 11.3373 8.65792 11.9788 7.08063 12H7.00001C5.46766 12.0038 3.99268 11.4174 2.88126 10.3625C2.83353 10.3174 2.79516 10.2633 2.76834 10.2033C2.74152 10.1433 2.72678 10.0787 2.72495 10.013C2.72312 9.94734 2.73425 9.88196 2.75769 9.82059C2.78113 9.75922 2.81643 9.70307 2.86157 9.65534C2.90671 9.60761 2.96081 9.56924 3.02078 9.54243C3.08075 9.51561 3.14542 9.50086 3.21109 9.49903C3.27676 9.4972 3.34214 9.50833 3.40351 9.53177C3.46488 9.55521 3.52103 9.59051 3.56876 9.63565C4.28363 10.3098 5.18131 10.7584 6.14965 10.9254C7.11799 11.0924 8.11407 10.9703 9.01344 10.5745C9.91282 10.1786 10.6756 9.52654 11.2066 8.6997C11.7375 7.87285 12.013 6.90789 11.9987 5.92537C11.9844 4.94284 11.6809 3.9863 11.1262 3.17525C10.5714 2.36421 9.78996 1.7346 8.87945 1.36509C7.96894 0.995581 6.96974 0.90255 6.00666 1.09762C5.04359 1.29269 4.15934 1.76721 3.46438 2.4619C3.45928 2.46743 3.45385 2.47264 3.44813 2.47753L2.78938 3.08065L3.85188 4.14315C3.92286 4.2128 3.97145 4.30202 3.99146 4.39942C4.01147 4.49683 4.00198 4.59798 3.96421 4.68996C3.92643 4.78195 3.86209 4.86058 3.77941 4.91581C3.69672 4.97104 3.59944 5.00036 3.50001 5.00003H0.500008C0.3674 5.00003 0.240223 4.94735 0.146455 4.85358C0.0526868 4.75981 8.424e-06 4.63264 8.424e-06 4.50003V1.50003C-0.000567067 1.40087 0.0283557 1.30377 0.0831 1.22109C0.137844 1.13841 0.215938 1.07387 0.307453 1.03569C0.398967 0.997501 0.49977 0.987388 0.597047 1.00663C0.694324 1.02588 0.783681 1.07362 0.853758 1.14378L2.08188 2.37503L2.76563 1.75003C3.60562 0.913303 4.67468 0.344195 5.83784 0.114547C7.001 -0.115101 8.20613 0.00500679 9.30109 0.459707C10.3961 0.914408 11.3318 1.68332 11.9901 2.66937C12.6484 3.65542 12.9998 4.81441 13 6.00003Z" fill="black"/>
</svg>
