<svg width="1160" height="67" viewBox="0 0 1160 67" fill="none" xmlns="http://www.w3.org/2000/svg">
<g clip-path="url(#clip0_883_694)">
<line x1="6.8051" y1="65.5927" x2="6.8051" y2="50.2063" stroke="white" stroke-opacity="0.34" stroke-width="2.3898" stroke-linecap="round"/>
<line x1="14.8051" y1="65.5927" x2="14.8051" y2="51.7735" stroke="white" stroke-opacity="0.34" stroke-width="2.3898" stroke-linecap="round"/>
<line x1="22.8051" y1="65.5927" x2="22.8051" y2="16.0424" stroke="white" stroke-opacity="0.34" stroke-width="2.3898" stroke-linecap="round"/>
<line x1="30.8051" y1="65.5927" x2="30.8051" y2="24.8753" stroke="white" stroke-opacity="0.34" stroke-width="2.3898" stroke-linecap="round"/>
<line x1="86.8051" y1="65.5927" x2="86.8051" y2="27.9825" stroke="white" stroke-opacity="0.34" stroke-width="2.3898" stroke-linecap="round"/>
<line x1="94.8051" y1="65.5927" x2="94.8051" y2="46.3998" stroke="white" stroke-opacity="0.34" stroke-width="2.3898" stroke-linecap="round"/>
<line x1="102.805" y1="65.5927" x2="102.805" y2="42.1883" stroke="white" stroke-opacity="0.34" stroke-width="2.3898" stroke-linecap="round"/>
<line x1="110.805" y1="65.5927" x2="110.805" y2="49.9734" stroke="white" stroke-opacity="0.34" stroke-width="2.3898" stroke-linecap="round"/>
<line x1="118.805" y1="65.5927" x2="118.805" y2="21.4206" stroke="white" stroke-opacity="0.34" stroke-width="2.3898" stroke-linecap="round"/>
<line x1="126.805" y1="65.5927" x2="126.805" y2="47.6032" stroke="white" stroke-opacity="0.34" stroke-width="2.3898" stroke-linecap="round"/>
<line x1="134.805" y1="65.5927" x2="134.805" y2="21.7693" stroke="white" stroke-opacity="0.34" stroke-width="2.3898" stroke-linecap="round"/>
<line x1="142.805" y1="65.5927" x2="142.805" y2="40.4397" stroke="white" stroke-opacity="0.34" stroke-width="2.3898" stroke-linecap="round"/>
<line x1="150.805" y1="65.5927" x2="150.805" y2="13.6098" stroke="white" stroke-opacity="0.34" stroke-width="2.3898" stroke-linecap="round"/>
<line x1="158.805" y1="65.5927" x2="158.805" y2="36.3622" stroke="white" stroke-opacity="0.34" stroke-width="2.3898" stroke-linecap="round"/>
<line x1="166.805" y1="65.5927" x2="166.805" y2="44.8056" stroke="white" stroke-opacity="0.34" stroke-width="2.3898" stroke-linecap="round"/>
<line x1="174.805" y1="65.5927" x2="174.805" y2="3.61349" stroke="white" stroke-opacity="0.34" stroke-width="2.3898" stroke-linecap="round"/>
<line x1="182.805" y1="65.5927" x2="182.805" y2="35.4265" stroke="white" stroke-opacity="0.34" stroke-width="2.3898" stroke-linecap="round"/>
<line x1="190.805" y1="65.5927" x2="190.805" y2="32.61" stroke="white" stroke-opacity="0.34" stroke-width="2.3898" stroke-linecap="round"/>
<line x1="198.805" y1="65.5927" x2="198.805" y2="30.5529" stroke="white" stroke-opacity="0.34" stroke-width="2.3898" stroke-linecap="round"/>
<line x1="206.805" y1="65.5927" x2="206.805" y2="26.0268" stroke="white" stroke-opacity="0.34" stroke-width="2.3898" stroke-linecap="round"/>
<line x1="214.805" y1="65.5927" x2="214.805" y2="43.1724" stroke="white" stroke-opacity="0.34" stroke-width="2.3898" stroke-linecap="round"/>
<line x1="222.805" y1="65.5927" x2="222.805" y2="36.9852" stroke="white" stroke-opacity="0.34" stroke-width="2.3898" stroke-linecap="round"/>
<line x1="230.805" y1="65.5927" x2="230.805" y2="43.4556" stroke="white" stroke-opacity="0.34" stroke-width="2.3898" stroke-linecap="round"/>
<line x1="238.805" y1="65.5927" x2="238.805" y2="33.5888" stroke="white" stroke-opacity="0.34" stroke-width="2.3898" stroke-linecap="round"/>
<line x1="246.805" y1="65.5927" x2="246.805" y2="51.4438" stroke="white" stroke-opacity="0.34" stroke-width="2.3898" stroke-linecap="round"/>
<line x1="254.805" y1="65.5927" x2="254.805" y2="25.0675" stroke="white" stroke-opacity="0.34" stroke-width="2.3898" stroke-linecap="round"/>
<line x1="262.805" y1="65.5927" x2="262.805" y2="4.2552" stroke="white" stroke-opacity="0.34" stroke-width="2.3898" stroke-linecap="round"/>
<line x1="270.805" y1="65.5927" x2="270.805" y2="2.28024" stroke="white" stroke-opacity="0.34" stroke-width="2.3898" stroke-linecap="round"/>
<line x1="278.805" y1="65.5927" x2="278.805" y2="9.56635" stroke="white" stroke-opacity="0.34" stroke-width="2.3898" stroke-linecap="round"/>
<line x1="286.805" y1="65.5927" x2="286.805" y2="3.76841" stroke="white" stroke-opacity="0.34" stroke-width="2.3898" stroke-linecap="round"/>
<line x1="294.805" y1="65.5927" x2="294.805" y2="40.5799" stroke="white" stroke-opacity="0.34" stroke-width="2.3898" stroke-linecap="round"/>
<line x1="302.805" y1="65.5927" x2="302.805" y2="17.2111" stroke="white" stroke-opacity="0.34" stroke-width="2.3898" stroke-linecap="round"/>
<line x1="310.805" y1="65.5927" x2="310.805" y2="52.2212" stroke="white" stroke-opacity="0.34" stroke-width="2.3898" stroke-linecap="round"/>
<line x1="318.805" y1="65.5927" x2="318.805" y2="48.5476" stroke="white" stroke-opacity="0.34" stroke-width="2.3898" stroke-linecap="round"/>
<line x1="326.805" y1="65.5927" x2="326.805" y2="47.9235" stroke="white" stroke-opacity="0.34" stroke-width="2.3898" stroke-linecap="round"/>
<line x1="334.805" y1="65.5927" x2="334.805" y2="24.99" stroke="white" stroke-opacity="0.34" stroke-width="2.3898" stroke-linecap="round"/>
<line x1="342.805" y1="65.5927" x2="342.805" y2="30.1342" stroke="white" stroke-opacity="0.34" stroke-width="2.3898" stroke-linecap="round"/>
<line x1="350.805" y1="65.5927" x2="350.805" y2="47.5415" stroke="white" stroke-opacity="0.34" stroke-width="2.3898" stroke-linecap="round"/>
<line x1="358.805" y1="65.5927" x2="358.805" y2="46.7867" stroke="white" stroke-opacity="0.34" stroke-width="2.3898" stroke-linecap="round"/>
<line x1="366.805" y1="65.5927" x2="366.805" y2="40.9208" stroke="white" stroke-opacity="0.34" stroke-width="2.3898" stroke-linecap="round"/>
<line x1="374.805" y1="65.5927" x2="374.805" y2="26.4735" stroke="white" stroke-opacity="0.34" stroke-width="2.3898" stroke-linecap="round"/>
<line x1="382.805" y1="65.5927" x2="382.805" y2="21.2376" stroke="white" stroke-opacity="0.34" stroke-width="2.3898" stroke-linecap="round"/>
<line x1="390.805" y1="65.5927" x2="390.805" y2="6.96818" stroke="white" stroke-opacity="0.34" stroke-width="2.3898" stroke-linecap="round"/>
<line x1="398.805" y1="65.5927" x2="398.805" y2="6.03568" stroke="white" stroke-opacity="0.34" stroke-width="2.3898" stroke-linecap="round"/>
<line x1="406.805" y1="65.5927" x2="406.805" y2="41.5954" stroke="white" stroke-opacity="0.34" stroke-width="2.3898" stroke-linecap="round"/>
<line x1="414.805" y1="65.5927" x2="414.805" y2="16.4997" stroke="white" stroke-opacity="0.34" stroke-width="2.3898" stroke-linecap="round"/>
<line x1="422.805" y1="65.5927" x2="422.805" y2="51.3859" stroke="white" stroke-opacity="0.34" stroke-width="2.3898" stroke-linecap="round"/>
<line x1="430.805" y1="65.5927" x2="430.805" y2="3.1745" stroke="white" stroke-opacity="0.34" stroke-width="2.3898" stroke-linecap="round"/>
<line x1="438.805" y1="65.5927" x2="438.805" y2="40.907" stroke="white" stroke-opacity="0.34" stroke-width="2.3898" stroke-linecap="round"/>
<line x1="446.805" y1="65.5927" x2="446.805" y2="30.7852" stroke="white" stroke-opacity="0.34" stroke-width="2.3898" stroke-linecap="round"/>
<line x1="454.805" y1="65.5927" x2="454.805" y2="28.7812" stroke="white" stroke-opacity="0.34" stroke-width="2.3898" stroke-linecap="round"/>
<line x1="462.805" y1="65.5927" x2="462.805" y2="43.3953" stroke="white" stroke-opacity="0.34" stroke-width="2.3898" stroke-linecap="round"/>
<line x1="470.805" y1="65.5927" x2="470.805" y2="52.825" stroke="white" stroke-opacity="0.34" stroke-width="2.3898" stroke-linecap="round"/>
<line x1="478.805" y1="65.5927" x2="478.805" y2="54.2384" stroke="white" stroke-opacity="0.34" stroke-width="2.3898" stroke-linecap="round"/>
<line x1="486.805" y1="65.5927" x2="486.805" y2="32.063" stroke="white" stroke-opacity="0.34" stroke-width="2.3898" stroke-linecap="round"/>
<line x1="494.805" y1="65.5927" x2="494.805" y2="33.8653" stroke="white" stroke-opacity="0.34" stroke-width="2.3898" stroke-linecap="round"/>
<line x1="502.805" y1="65.5927" x2="502.805" y2="15.675" stroke="white" stroke-opacity="0.34" stroke-width="2.3898" stroke-linecap="round"/>
<line x1="582.805" y1="65.5927" x2="582.805" y2="27.9825" stroke="white" stroke-opacity="0.34" stroke-width="2.3898" stroke-linecap="round"/>
<line x1="590.805" y1="65.5927" x2="590.805" y2="41.0943" stroke="white" stroke-opacity="0.34" stroke-width="2.3898" stroke-linecap="round"/>
<line x1="598.805" y1="65.5927" x2="598.805" y2="51.3666" stroke="white" stroke-opacity="0.34" stroke-width="2.3898" stroke-linecap="round"/>
<line x1="606.805" y1="65.5927" x2="606.805" y2="30.4657" stroke="white" stroke-opacity="0.34" stroke-width="2.3898" stroke-linecap="round"/>
<line x1="614.805" y1="65.5927" x2="614.805" y2="27.9825" stroke="white" stroke-opacity="0.34" stroke-width="2.3898" stroke-linecap="round"/>
<line x1="622.805" y1="65.5927" x2="622.805" y2="37.5969" stroke="white" stroke-opacity="0.34" stroke-width="2.3898" stroke-linecap="round"/>
<line x1="630.805" y1="65.5927" x2="630.805" y2="9.99932" stroke="white" stroke-opacity="0.34" stroke-width="2.3898" stroke-linecap="round"/>
<line x1="638.805" y1="65.5927" x2="638.805" y2="47.0612" stroke="white" stroke-opacity="0.34" stroke-width="2.3898" stroke-linecap="round"/>
<line x1="646.805" y1="65.5927" x2="646.805" y2="28.2898" stroke="white" stroke-opacity="0.34" stroke-width="2.3898" stroke-linecap="round"/>
<line x1="654.805" y1="65.5927" x2="654.805" y2="45.6904" stroke="white" stroke-opacity="0.34" stroke-width="2.3898" stroke-linecap="round"/>
<line x1="662.805" y1="65.5927" x2="662.805" y2="17.144" stroke="white" stroke-opacity="0.34" stroke-width="2.3898" stroke-linecap="round"/>
<line x1="670.805" y1="65.5927" x2="670.805" y2="1.1949" stroke="white" stroke-opacity="0.34" stroke-width="2.3898" stroke-linecap="round"/>
<line x1="678.805" y1="65.5927" x2="678.805" y2="5.54039" stroke="white" stroke-opacity="0.34" stroke-width="2.3898" stroke-linecap="round"/>
<line x1="686.805" y1="65.5927" x2="686.805" y2="25.4197" stroke="white" stroke-opacity="0.34" stroke-width="2.3898" stroke-linecap="round"/>
<line x1="694.805" y1="65.5927" x2="694.805" y2="27.588" stroke="white" stroke-opacity="0.34" stroke-width="2.3898" stroke-linecap="round"/>
<line x1="702.805" y1="65.5927" x2="702.805" y2="20.8747" stroke="white" stroke-opacity="0.34" stroke-width="2.3898" stroke-linecap="round"/>
<line x1="710.805" y1="65.5927" x2="710.805" y2="49.2914" stroke="white" stroke-opacity="0.34" stroke-width="2.3898" stroke-linecap="round"/>
<line x1="718.805" y1="65.5927" x2="718.805" y2="28.7243" stroke="white" stroke-opacity="0.34" stroke-width="2.3898" stroke-linecap="round"/>
<line x1="726.805" y1="65.5927" x2="726.805" y2="33.9891" stroke="white" stroke-opacity="0.34" stroke-width="2.3898" stroke-linecap="round"/>
<line x1="734.805" y1="65.5927" x2="734.805" y2="17.4111" stroke="white" stroke-opacity="0.34" stroke-width="2.3898" stroke-linecap="round"/>
<line x1="742.805" y1="65.5927" x2="742.805" y2="47.8019" stroke="white" stroke-opacity="0.34" stroke-width="2.3898" stroke-linecap="round"/>
<line x1="750.805" y1="65.5927" x2="750.805" y2="49.7871" stroke="white" stroke-opacity="0.34" stroke-width="2.3898" stroke-linecap="round"/>
<line x1="758.805" y1="65.5927" x2="758.805" y2="2.9295" stroke="white" stroke-opacity="0.34" stroke-width="2.3898" stroke-linecap="round"/>
<line x1="806.805" y1="65.5927" x2="806.805" y2="46.6026" stroke="white" stroke-opacity="0.34" stroke-width="2.3898" stroke-linecap="round"/>
<line x1="814.805" y1="65.5927" x2="814.805" y2="22.2298" stroke="white" stroke-opacity="0.34" stroke-width="2.3898" stroke-linecap="round"/>
<line x1="822.805" y1="65.5927" x2="822.805" y2="28.3628" stroke="white" stroke-opacity="0.34" stroke-width="2.3898" stroke-linecap="round"/>
<line x1="830.805" y1="65.5927" x2="830.805" y2="15.5828" stroke="white" stroke-opacity="0.34" stroke-width="2.3898" stroke-linecap="round"/>
<line x1="838.805" y1="65.5927" x2="838.805" y2="38.8615" stroke="white" stroke-opacity="0.34" stroke-width="2.3898" stroke-linecap="round"/>
<line x1="846.805" y1="65.5927" x2="846.805" y2="4.23808" stroke="white" stroke-opacity="0.34" stroke-width="2.3898" stroke-linecap="round"/>
<line x1="854.805" y1="65.5927" x2="854.805" y2="31.3994" stroke="white" stroke-opacity="0.34" stroke-width="2.3898" stroke-linecap="round"/>
<line x1="862.805" y1="65.5927" x2="862.805" y2="36.2381" stroke="white" stroke-opacity="0.34" stroke-width="2.3898" stroke-linecap="round"/>
<line x1="870.805" y1="65.5927" x2="870.805" y2="18.4443" stroke="white" stroke-opacity="0.34" stroke-width="2.3898" stroke-linecap="round"/>
<line x1="878.805" y1="65.5927" x2="878.805" y2="33.7607" stroke="white" stroke-opacity="0.34" stroke-width="2.3898" stroke-linecap="round"/>
<line x1="886.805" y1="65.5927" x2="886.805" y2="36.4061" stroke="white" stroke-opacity="0.34" stroke-width="2.3898" stroke-linecap="round"/>
<line x1="894.805" y1="65.5927" x2="894.805" y2="36.9645" stroke="white" stroke-opacity="0.34" stroke-width="2.3898" stroke-linecap="round"/>
<line x1="902.805" y1="65.5927" x2="902.805" y2="38.2919" stroke="white" stroke-opacity="0.34" stroke-width="2.3898" stroke-linecap="round"/>
<line x1="910.805" y1="65.5927" x2="910.805" y2="5.95647" stroke="white" stroke-opacity="0.34" stroke-width="2.3898" stroke-linecap="round"/>
<line x1="918.805" y1="65.5927" x2="918.805" y2="31.0297" stroke="white" stroke-opacity="0.34" stroke-width="2.3898" stroke-linecap="round"/>
<line x1="926.805" y1="65.5927" x2="926.805" y2="41.9678" stroke="white" stroke-opacity="0.34" stroke-width="2.3898" stroke-linecap="round"/>
<line x1="934.805" y1="65.5927" x2="934.805" y2="11.3643" stroke="white" stroke-opacity="0.34" stroke-width="2.3898" stroke-linecap="round"/>
<line x1="942.805" y1="65.5927" x2="942.805" y2="40.1778" stroke="white" stroke-opacity="0.34" stroke-width="2.3898" stroke-linecap="round"/>
<line x1="950.805" y1="65.5927" x2="950.805" y2="2.0407" stroke="white" stroke-opacity="0.34" stroke-width="2.3898" stroke-linecap="round"/>
<line x1="958.805" y1="65.5927" x2="958.805" y2="45.0714" stroke="white" stroke-opacity="0.34" stroke-width="2.3898" stroke-linecap="round"/>
<line x1="966.805" y1="65.5927" x2="966.805" y2="31.4049" stroke="white" stroke-opacity="0.34" stroke-width="2.3898" stroke-linecap="round"/>
<line x1="974.805" y1="65.5927" x2="974.805" y2="38.1656" stroke="white" stroke-opacity="0.34" stroke-width="2.3898" stroke-linecap="round"/>
<line x1="982.805" y1="65.5927" x2="982.805" y2="43.5103" stroke="white" stroke-opacity="0.34" stroke-width="2.3898" stroke-linecap="round"/>
<line x1="990.805" y1="65.5927" x2="990.805" y2="47.0563" stroke="white" stroke-opacity="0.34" stroke-width="2.3898" stroke-linecap="round"/>
<line x1="998.805" y1="65.5927" x2="998.805" y2="50.0069" stroke="white" stroke-opacity="0.34" stroke-width="2.3898" stroke-linecap="round"/>
<line x1="1006.81" y1="65.5927" x2="1006.81" y2="33.0794" stroke="white" stroke-opacity="0.34" stroke-width="2.3898" stroke-linecap="round"/>
<line x1="1014.81" y1="65.5927" x2="1014.81" y2="41.9957" stroke="white" stroke-opacity="0.34" stroke-width="2.3898" stroke-linecap="round"/>
<line x1="1022.81" y1="65.5927" x2="1022.81" y2="9.10909" stroke="white" stroke-opacity="0.34" stroke-width="2.3898" stroke-linecap="round"/>
<line x1="1030.81" y1="65.5927" x2="1030.81" y2="24.61" stroke="white" stroke-opacity="0.34" stroke-width="2.3898" stroke-linecap="round"/>
<line x1="1038.81" y1="65.5927" x2="1038.81" y2="54.0359" stroke="white" stroke-opacity="0.34" stroke-width="2.3898" stroke-linecap="round"/>
<line x1="1046.81" y1="65.5927" x2="1046.81" y2="37.646" stroke="white" stroke-opacity="0.34" stroke-width="2.3898" stroke-linecap="round"/>
<line x1="1054.81" y1="65.5927" x2="1054.81" y2="35.7019" stroke="white" stroke-opacity="0.34" stroke-width="2.3898" stroke-linecap="round"/>
<line x1="1062.81" y1="65.5927" x2="1062.81" y2="13.0742" stroke="white" stroke-opacity="0.34" stroke-width="2.3898" stroke-linecap="round"/>
<line x1="1070.81" y1="65.5927" x2="1070.81" y2="1.92005" stroke="white" stroke-opacity="0.34" stroke-width="2.3898" stroke-linecap="round"/>
<line x1="1078.81" y1="65.5927" x2="1078.81" y2="46.823" stroke="white" stroke-opacity="0.34" stroke-width="2.3898" stroke-linecap="round"/>
<line x1="1086.81" y1="65.5927" x2="1086.81" y2="14.5982" stroke="white" stroke-opacity="0.34" stroke-width="2.3898" stroke-linecap="round"/>
<line x1="1094.81" y1="65.5927" x2="1094.81" y2="6.65836" stroke="white" stroke-opacity="0.34" stroke-width="2.3898" stroke-linecap="round"/>
<line x1="1102.81" y1="65.5927" x2="1102.81" y2="2.29115" stroke="white" stroke-opacity="0.34" stroke-width="2.3898" stroke-linecap="round"/>
<line x1="1110.81" y1="65.5927" x2="1110.81" y2="31.8481" stroke="white" stroke-opacity="0.34" stroke-width="2.3898" stroke-linecap="round"/>
<line x1="1118.81" y1="65.5927" x2="1118.81" y2="52.8246" stroke="white" stroke-opacity="0.34" stroke-width="2.3898" stroke-linecap="round"/>
<line x1="1126.81" y1="65.5927" x2="1126.81" y2="11.5264" stroke="white" stroke-opacity="0.34" stroke-width="2.3898" stroke-linecap="round"/>
<line x1="1134.81" y1="65.5927" x2="1134.81" y2="20.858" stroke="white" stroke-opacity="0.34" stroke-width="2.3898" stroke-linecap="round"/>
<line x1="1142.81" y1="65.5927" x2="1142.81" y2="32.4029" stroke="white" stroke-opacity="0.34" stroke-width="2.3898" stroke-linecap="round"/>
<line x1="1150.81" y1="65.5927" x2="1150.81" y2="16.93" stroke="white" stroke-opacity="0.34" stroke-width="2.3898" stroke-linecap="round"/>
<line x1="1158.81" y1="65.5927" x2="1158.81" y2="45.2934" stroke="white" stroke-opacity="0.34" stroke-width="2.3898" stroke-linecap="round"/>
</g>
<defs>
<clipPath id="clip0_883_694">
<rect width="1160" height="66.7876" fill="white"/>
</clipPath>
</defs>
</svg>
